<svg xmlns="http://www.w3.org/2000/svg" xmlns:xlink="http://www.w3.org/1999/xlink" version="1.1" x="0px" y="0px" viewBox="0 0 64 80" style="enable-background:new 0 0 64 64;" xml:space="preserve"><g><path d="M1,1v62h62V1H1z M61,61H3V3h58V61z"/><path d="M59,5H5v22h54V5z M57,25H7V7h50V25z"/><path d="M59,41h-5v-6c0-2.206-1.794-4-4-4s-4,1.794-4,4h2c0-1.103,0.897-2,2-2s2,0.897,2,2v6H25.048   C25.639,40.194,26,39.21,26,38.136V35h2v-2h-6c0-2.206-1.794-4-4-4s-4,1.794-4,4H8v2h2v3.136c0,1.074,0.361,2.059,0.952,2.864H5v18   h54V41z M18,31c1.103,0,2,0.897,2,2h-4C16,31.897,16.897,31,18,31z M12,38.136V35h12v3.136C24,39.715,22.715,41,21.136,41h-6.272   C13.285,41,12,39.715,12,38.136z M14.864,43h6.272H29v6H7v-6H14.864z M13,51h10v1c0,0.552-0.449,1-1,1h-8c-0.551,0-1-0.448-1-1V51z    M7,51h4v1c0,1.654,1.346,3,3,3h8c1.654,0,3-1.346,3-3v-1h4v6H7V51z M57,57H31V43h26V57z"/><path d="M55,55V45H33v10H55z M53,53h-8v-6h8V53z M35,47h8v6h-8V47z"/><rect x="17" y="45" width="2" height="2"/><rect x="21" y="45" width="2" height="2"/><rect x="13" y="45" width="2" height="2"/><path d="M55,9H33v14h22V9z M35,15h2v2h-2V15z M53,21H35v-2h4v-6h-4v-2h18V21z"/><path d="M31,9H9v14h22V9z M11,21V11h18v2h-4v6h4v2H11z M29,15v2h-2v-2H29z"/></g><text x="0" y="79" fill="#000000" font-size="5px" font-weight="bold" font-family="'Helvetica Neue', Helvetica, Arial-Unicode, Arial, Sans-serif">Created by Eucalyp</text><text x="0" y="84" fill="#000000" font-size="5px" font-weight="bold" font-family="'Helvetica Neue', Helvetica, Arial-Unicode, Arial, Sans-serif">from the Noun Project</text></svg>