<svg xmlns="http://www.w3.org/2000/svg" xmlns:xlink="http://www.w3.org/1999/xlink" version="1.1" x="0px" y="0px" viewBox="0 0 100 125" enable-background="new 0 0 100 100" xml:space="preserve"><g><g><g><path d="M45.962,61.198v27.335h20.929V61.198H45.962z M63.898,77.481h-2.992v-5.23h2.992V77.481z"/></g><g><rect x="16.491" y="77.068" width="19.527" height="6.099"/></g><g><polygon points="10.926,91.525 10.926,95 88.97,95 88.97,91.525 45.962,91.525    "/></g><g><polygon points="6.611,58.206 45.962,58.206 93.285,58.206 93.285,54.732 6.611,54.732    "/></g><g><path d="M9.082,68.139H42.97v-6.941H9.082V68.139z M37.515,63.346c0.825,0,1.494,0.669,1.494,1.495     c0,0.825-0.669,1.494-1.494,1.494c-0.826,0-1.495-0.669-1.495-1.494C36.02,64.015,36.689,63.346,37.515,63.346z M29.855,63.346     c0.825,0,1.495,0.669,1.495,1.495c0,0.825-0.669,1.494-1.495,1.494s-1.494-0.669-1.494-1.494     C28.361,64.015,29.03,63.346,29.855,63.346z M22.197,63.346c0.825,0,1.494,0.669,1.494,1.495c0,0.825-0.669,1.494-1.494,1.494     c-0.826,0-1.495-0.669-1.495-1.494C20.702,64.015,21.371,63.346,22.197,63.346z M14.538,63.346c0.825,0,1.495,0.669,1.495,1.495     c0,0.825-0.669,1.494-1.495,1.494s-1.495-0.669-1.495-1.494C13.043,64.015,13.712,63.346,14.538,63.346z"/></g><g><path d="M69.884,88.533h20.93V61.198h-20.93V88.533z M72.878,72.25h2.992v5.23h-2.992V72.25z"/></g><g><path d="M9.082,88.533H42.97V71.131H9.082V88.533z M13.498,74.076h25.513v12.083H13.498V74.076z"/></g></g><g><g><polygon points="42.485,29.242 37.642,12.226 11.939,12.226 7.096,29.242    "/></g><g><rect x="12.305" y="5" width="24.971" height="4.233"/></g></g><g><g><path d="M93.389,29.242V5.03H71.172v24.212H93.389z M74.166,14.208h2.993v5.23h-2.993V14.208z"/></g><g><path d="M68.18,29.242V5.03H45.962v24.212H68.18z M62.193,14.208h2.992v5.23h-2.992V14.208z"/></g></g></g><text x="0" y="115" fill="#000000" font-size="5px" font-weight="bold" font-family="'Helvetica Neue', Helvetica, Arial-Unicode, Arial, Sans-serif">Created by fauzan akbar</text><text x="0" y="120" fill="#000000" font-size="5px" font-weight="bold" font-family="'Helvetica Neue', Helvetica, Arial-Unicode, Arial, Sans-serif">from the Noun Project</text></svg>