<svg xmlns="http://www.w3.org/2000/svg" xmlns:xlink="http://www.w3.org/1999/xlink" version="1.1" x="0px" y="0px" viewBox="0 0 91 113.75" enable-background="new 0 0 91 91" xml:space="preserve"><g><g><path d="M72.861,17.815c-0.809-0.834-2.137-0.85-2.969-0.043L47.252,39.776c-0.83,0.809-0.85,2.139-0.041,2.971    c0.412,0.422,0.959,0.635,1.506,0.635c0.527,0,1.057-0.195,1.463-0.594L72.82,20.784C73.65,19.975,73.67,18.647,72.861,17.815z"/><path d="M88.707,34.827l-7.762-0.004c-0.787-2.637-1.879-5.168-3.23-7.568l6.508-6.43c0.137-0.084,0.268-0.182,0.387-0.303    c0.109-0.111,0.201-0.232,0.281-0.357l2.941-2.906c1.592-1.605,2.463-3.738,2.451-6c-0.01-2.264-0.904-4.387-2.514-5.979    l-2.588-2.564c-1.598-1.58-3.715-2.449-5.961-2.449c-2.283,0-4.422,0.893-6.004,2.496L63.023,12.834    c-2.217-1.193-4.541-2.17-6.957-2.891l-0.002-7.762c-0.002-1.158-0.941-2.098-2.102-2.098H36.896c-1.158,0-2.098,0.939-2.1,2.098    l-0.002,7.764c-2.414,0.721-4.744,1.684-6.959,2.877l-5.48-5.484c-0.395-0.395-0.93-0.615-1.486-0.615s-1.092,0.221-1.484,0.615    L7.314,19.407c-0.82,0.82-0.82,2.148-0.002,2.969l5.484,5.484c-1.191,2.213-2.154,4.547-2.877,6.963H2.156    c-1.16,0-2.1,0.941-2.1,2.1v17.066c0,1.16,0.939,2.1,2.1,2.1h7.762c0.719,2.412,1.684,4.744,2.879,6.963l-5.486,5.484    c-0.393,0.395-0.615,0.93-0.615,1.486s0.223,1.09,0.615,1.484l12.068,12.068c0.82,0.82,2.15,0.82,2.971,0l5.484-5.484    c2.223,1.195,4.553,2.156,6.963,2.875v7.766c0,1.16,0.941,2.1,2.1,2.1h17.07c1.16,0,2.1-0.939,2.1-2.1v-7.768    c2.42-0.719,4.752-1.682,6.961-2.873l5.486,5.484c0.82,0.82,2.15,0.82,2.971,0l12.066-12.068c0.82-0.82,0.82-2.15,0-2.971    l-5.482-5.484c1.191-2.213,2.152-4.545,2.873-6.963h7.764c1.16,0,2.102-0.939,2.102-2.1V36.926    C90.807,35.768,89.867,34.829,88.707,34.827z M69.42,37.672c0.813,2.508,1.227,5.125,1.227,7.785    c0,13.902-11.311,25.212-25.215,25.212c-13.902,0-25.213-11.311-25.213-25.212c0-13.902,11.311-25.213,25.213-25.213    c2.973,0,5.848,0.502,8.58,1.494L34.234,41.282c-0.004,0.006-0.008,0.012-0.014,0.016c-0.023,0.025-0.043,0.055-0.066,0.08    c-0.088,0.1-0.166,0.203-0.234,0.314c-0.027,0.045-0.051,0.09-0.074,0.137c-0.057,0.113-0.104,0.232-0.141,0.354    c-0.008,0.029-0.023,0.053-0.031,0.082L29.832,57.6c-0.18,0.715,0.029,1.471,0.549,1.992c0.398,0.4,0.938,0.617,1.488,0.617    c0.168,0,0.336-0.02,0.502-0.061l15.488-3.809c0.029-0.008,0.051-0.023,0.078-0.031c0.125-0.035,0.246-0.084,0.365-0.143    c0.041-0.021,0.082-0.041,0.123-0.064c0.129-0.076,0.254-0.168,0.369-0.275c0.01-0.01,0.021-0.016,0.031-0.025    c0.002-0.002,0.006-0.004,0.008-0.006l19.979-19.742C69.027,36.588,69.242,37.125,69.42,37.672z M43.217,53.156l-8.463,2.08    l2.098-8.377l3.1,3.066L43.217,53.156z M47.359,51.348l-3.482-3.445l-5.18-5.126l20.361-20.119    c0.021-0.018,0.039-0.041,0.061-0.061l5.775-5.707c0.016-0.016,0.033-0.029,0.047-0.045l6.488-6.41l8.66,8.57L47.359,51.348z     M82.227,5.7l2.588,2.564c0.813,0.805,1.264,1.875,1.27,3.016c0.006,1.139-0.434,2.213-1.221,3.008l-1.785,1.766l-8.662-8.57    l1.771-1.75C77.785,4.11,80.609,4.1,82.227,5.7z M86.605,51.889H79.34c-0.965,0-1.803,0.654-2.037,1.59    c-0.781,3.123-2.012,6.102-3.652,8.85c-0.494,0.826-0.363,1.883,0.316,2.563l5.129,5.131l-9.098,9.098l-5.133-5.129    c-0.682-0.682-1.736-0.811-2.563-0.318c-2.742,1.641-5.719,2.871-8.846,3.654c-0.934,0.232-1.59,1.072-1.59,2.037v7.268H38.998    v-7.268c0-0.965-0.656-1.805-1.592-2.039c-3.109-0.773-6.086-2.002-8.852-3.652c-0.826-0.492-1.881-0.361-2.561,0.318    l-5.131,5.129l-9.098-9.098l5.131-5.131c0.682-0.68,0.813-1.736,0.318-2.563c-1.648-2.76-2.879-5.74-3.656-8.848    c-0.234-0.936-1.074-1.592-2.037-1.592H4.258V39.024h7.264c0.961,0,1.801-0.656,2.037-1.59c0.783-3.125,2.014-6.102,3.656-8.85    c0.494-0.828,0.363-1.885-0.316-2.563l-5.131-5.131l9.102-9.1l5.127,5.131c0.682,0.682,1.738,0.811,2.563,0.318    c2.754-1.645,5.73-2.875,8.848-3.658c0.934-0.234,1.588-1.074,1.588-2.035l0.004-7.264h12.867l0.002,7.264    c0,0.961,0.656,1.801,1.59,2.035c2.225,0.557,4.373,1.354,6.426,2.355l-2.619,2.588c-3.727-1.645-7.697-2.48-11.832-2.48    c-16.219,0-29.412,13.195-29.412,29.412c0,16.216,13.193,29.414,29.412,29.414s29.414-13.197,29.414-29.414    c0-3.1-0.482-6.156-1.43-9.078c-0.385-1.191-0.855-2.361-1.393-3.498l2.584-2.555c1.168,2.256,2.08,4.635,2.699,7.107    c0.234,0.934,1.074,1.59,2.037,1.59h7.262V51.889z"/></g></g></svg>
