<svg xmlns="http://www.w3.org/2000/svg" xmlns:xlink="http://www.w3.org/1999/xlink" version="1.1" x="0px" y="0px" viewBox="0 0 100 125" enable-background="new 0 0 100 100" xml:space="preserve"><path d="M71.26,40.123c6.181,2.147,13.045,0.592,17.701-4.066c4.941-4.94,6.377-12.297,3.657-18.742l-0.722-1.712l-10.279,10.28  c-1.84,1.838-4.831,1.838-6.669,0c-0.891-0.89-1.381-2.074-1.381-3.333s0.49-2.443,1.381-3.334L85.228,8.934l-1.712-0.722  c-6.445-2.718-13.802-1.282-18.74,3.659c-4.658,4.658-6.21,11.525-4.064,17.702l-2.138,2.138L42.527,15.665l-0.26-0.261  l-13.198-2.842l3.162,12.904L48.523,41.76l-2.655,2.654L22.325,20.871L6.336,36.859L29.88,60.402L9.559,80.725l10.549,10.55  L40.43,70.952l23.565,23.565l15.987-15.989L56.418,54.964l2.654-2.655l23.565,23.565l10.05-10.049L69.122,42.26L71.26,40.123z   M63.631,30.188l-0.309-0.767c-2.189-5.441-0.925-11.637,3.221-15.783c3.762-3.762,9.167-5.145,14.196-3.75l-7.559,7.559  c-1.363,1.363-2.113,3.175-2.113,5.102s0.75,3.739,2.113,5.102c2.813,2.813,7.39,2.814,10.204,0l7.559-7.56  c1.395,5.03,0.013,10.435-3.75,14.198c-4.146,4.146-10.339,5.412-15.782,3.221l-0.767-0.308l-3.29,3.29l-7.014-7.014L63.631,30.188z   M39.136,17.288l-5.089,5.089l-1.6-6.529L39.136,17.288z M20.107,87.739l-7.014-7.015L31.647,62.17l7.015,7.015L20.107,87.739z   M63.995,90.982l-3.615-3.615l7.328-7.33L65.94,78.27l-7.328,7.33l-1.541-1.541l4.353-4.353l-1.768-1.768l-4.353,4.353l-1.539-1.539  l7.328-7.329l-1.768-1.768l-7.328,7.329l-1.54-1.539l4.352-4.353l-1.768-1.768l-4.352,4.353l-1.54-1.54l7.329-7.329l-1.768-1.768  l-7.329,7.329l-1.539-1.539l4.352-4.353l-1.768-1.768l-4.352,4.353l-1.541-1.54l7.33-7.329l-1.768-1.768l-7.33,7.329l-1.539-1.539  l4.353-4.353l-1.768-1.768l-4.353,4.353l-1.54-1.54l7.329-7.328l-1.768-1.768l-7.329,7.328l-1.54-1.54l4.353-4.353l-1.768-1.768  l-4.353,4.353l-1.539-1.539l7.329-7.329l-1.768-1.768l-7.329,7.329L24,50.987l4.353-4.352l-1.768-1.768l-4.353,4.352l-1.539-1.539  l7.328-7.329l-1.768-1.768l-7.328,7.329l-1.54-1.54l4.353-4.352l-1.768-1.768l-4.353,4.352l-1.539-1.539l7.329-7.329L19.64,31.97  l-7.329,7.329l-2.44-2.44l12.453-12.453l54.123,54.123L63.995,90.982z M54.65,53.196l-7.015-7.015l2.655-2.654l7.014,7.014  L54.65,53.196z M86.779,68.198L49.208,30.626l-1.768,1.768l37.571,37.572l-2.374,2.373L35.129,24.83l2.374-2.374l7.384,7.384  l1.768-1.768l-7.384-7.384l2.373-2.373l47.51,47.509L86.779,68.198z"/></svg>
