<svg fill="#fff" xmlns="http://www.w3.org/2000/svg" xmlns:xlink="http://www.w3.org/1999/xlink" version="1.1" x="0px" y="0px" viewBox="0 0 100 125" style="enable-background:new 0 0 100 100;" xml:space="preserve"><g><path d="M97.525,42.329c-2.076-2.468-4.739-4.447-7.361-6.29c-3.195-2.243-6.313-4.604-9.286-7.134   c-2.606-2.217-5.206-4.609-7.221-7.401c0.712-6.729-1.534-16.172-1.776-16.207c-3.738-0.544-41.533,0.096-41.759,0.661   c-0.278,0.697-1.048,12.431-0.026,16.468c-2.725,1.317-5.224,3.37-7.617,5.114c-3.269,2.382-6.462,4.86-9.699,7.285   c-3.509,2.627-7.321,4.923-10.344,8.141C0.811,44.697-0.017,46.545,0,48.939c0.016,2.145,0.631,3.796,2.528,4.88   c3.796,2.168,8.795,2.469,13.07,2.667c6.925,0.321,13.938-0.177,20.862-0.411c8.62-0.292,17.237-0.651,25.858-0.944   c8.639-0.293,17.281-0.513,25.927-0.543c3.028-0.011,6.299,0.179,9.168-0.981c1.858-0.752,2.507-2.239,2.578-4.169   C100.094,46.656,99.3,44.437,97.525,42.329z M30.495,9.633C31.049,9.45,68.615,8.766,71.754,9.21   c0.195,2.224,1.428,10,1.211,11.334c-4.079,6.692-41.835,6.443-42.336-0.313C29.907,18.043,30.468,10.819,30.495,9.633z    M30.939,24.985c0.003,0.005,0.006,0.011,0.009,0.016c0.477,0.795,5.125,1.769,6.569,1.917c8.619,0.883,20.776,2.437,35.355-2.299   c0.052,0.125,12.711,13.209,18.561,16.916c-1.563,0.021-80.396,0.806-83.257,0.862C11.067,38.824,14.868,35.398,30.939,24.985z    M62.723,50.513c-8.621,0.299-59.941,4.636-61.253-1.756c0.128-2.704,1.748-3.577,3.383-3.707   c0.503,0.084,22.031,0.261,29.077,0.308c16.282,0.107,60.588-0.664,62.009-0.109s2.56,1.633,2.52,3.025   C98.169,52.719,71.361,50.214,62.723,50.513z M32.25,76.12c-0.946,1.974-1.104,4.187-0.83,6.34   c0.123,0.961,1.277,5.143,2.842,4.267c0.639-0.356,0.334-2.438,0.103-2.978c-0.408-0.951-1.553-4.178,0.352-6.712   c0.774-1.142,1.775-2.222,2.294-3.532c2.903-7.328-2.829-7.765-2.905-11.289c-0.049-0.899,2.18-2.61,3.026-1.948   c0.155,0.122,0.509-1.912,0.081-2.281c-0.978-0.843-2.01-1.658-3.308-1.037c-1.817,0.869-1.957,3.334-1.797,5.081   c0.146,1.593,1.201,3.351,1.7,4.028C37.734,69.665,33.043,74.464,32.25,76.12z M46.143,76.12c-0.946,1.974-1.104,4.187-0.829,6.34   c0.122,0.961,1.276,5.143,2.842,4.267c0.639-0.356,0.334-2.438,0.103-2.978c-0.408-0.951-1.553-4.178,0.352-6.712   c0.774-1.142,1.776-2.222,2.295-3.532c2.903-7.328-2.83-7.765-2.905-11.289c-0.049-0.899,2.181-2.61,3.026-1.948   c0.155,0.122,0.509-1.912,0.081-2.281c-0.978-0.843-2.01-1.658-3.308-1.037c-1.816,0.869-1.957,3.334-1.797,5.081   c0.146,1.593,1.2,3.351,1.699,4.028C51.628,69.665,46.938,74.464,46.143,76.12z M59.165,76.12c-0.946,1.974-1.104,4.187-0.829,6.34   c0.121,0.961,1.276,5.143,2.842,4.267c0.639-0.356,0.334-2.438,0.104-2.978c-0.408-0.951-1.554-4.178,0.352-6.712   c0.773-1.142,1.775-2.222,2.295-3.532c2.902-7.328-2.83-7.765-2.906-11.289c-0.049-0.899,2.182-2.61,3.026-1.948   c0.155,0.122,0.51-1.912,0.081-2.281c-0.978-0.843-2.01-1.658-3.309-1.037c-1.816,0.869-1.957,3.334-1.797,5.081   c0.146,1.593,1.201,3.351,1.7,4.028C64.649,69.665,59.959,74.464,59.165,76.12z M90.276,92.336   c-1.988,0.774-33.417,1.015-41.48,1.189c-7.08,0.154-36.726,1.877-39.34,1.245c-0.472-0.114-0.517-2.667-0.067-2.731   c2.803-0.396,32.709-2.484,39.817-2.723c8.062-0.271,39.11-1.119,40.983-0.479C90.806,89.049,90.883,92.101,90.276,92.336z    M64.492,21.862c3.066-0.26,3.143-3.957,3.072-6.274c-0.057-1.89-0.436-4.041-2.811-4.018c-2.689,0.027-3.722,3.817-3.722,3.817   S59.166,22.314,64.492,21.862z M63.684,15.273c1.051-0.416,2.496,0.188,3.166,1.119c0.199,0.501,0.384,2.257-2.324,2.65   c-2.709,0.394-2.448-1.753-2.564-1.872C61.908,15.928,62.906,15.581,63.684,15.273z M44.294,22.294   c5.526-0.479,8.703-0.198,13.159-0.198c0.779,0-0.125-9.19-0.709-9.365c-4.011,0.001-11.814-0.261-12.237,0.032   C43.996,13.436,43.685,22.348,44.294,22.294z M44.726,16.691c2.837-0.001,11.885-1.947,12.147-0.537   c0.055,0.29,0.115,1.567,0.166,1.809c-4.184,0.003-8.355,0.033-12.508,0.384C44.561,17.794,44.62,17.243,44.726,16.691z"/></g></svg>
