<?xml version="1.0" encoding="utf-8"?>
<!-- Generator: Adobe Illustrator 17.0.0, SVG Export Plug-In . SVG Version: 6.00 Build 0)  -->
<!DOCTYPE svg PUBLIC "-//W3C//DTD SVG 1.1//EN" "http://www.w3.org/Graphics/SVG/1.1/DTD/svg11.dtd">
<svg version="1.1" id="Layer_1" xmlns="http://www.w3.org/2000/svg" xmlns:xlink="http://www.w3.org/1999/xlink" x="0px" y="0px"
	 width="640px" height="640px" viewBox="0 0 640 640" enable-background="new 0 0 640 640" xml:space="preserve">
<g>
	<rect x="14.105" y="14.105" fill="#87b232" width="611.789" height="611.789"/>
	<rect x="19.499" y="19.499" fill="#FFFFFF" width="601" height="601"/>
</g>
<g>
	<g>
		<path fill="#87b232" d="M90.93,90.93V549.07h458.139V90.93H90.93z M534.291,534.291H105.709V105.709h428.582V534.291z"/>
		<path fill="#87b232" d="M519.512,120.488H120.488v162.565h399.024V120.488z M504.733,268.275H135.267V135.267h369.467V268.275z"/>
		<path fill="#87b232" d="M519.512,386.504h-36.947v-44.336c0-16.301-13.256-29.557-29.557-29.557
			c-16.301,0-29.557,13.256-29.557,29.557h14.779c0-8.15,6.628-14.779,14.779-14.779c8.15,0,14.779,6.628,14.779,14.779v44.336
			H268.629c4.367-5.956,7.035-13.227,7.035-21.163v-23.173h14.779v-14.779h-44.336c0-16.301-13.256-29.557-29.557-29.557
			s-29.557,13.257-29.557,29.557h-44.336v14.779h14.779v23.173c0,7.936,2.668,15.215,7.035,21.163h-43.981v133.008h399.024V386.504z
			 M216.549,312.611c8.15,0,14.779,6.628,14.779,14.779h-29.557C201.771,319.239,208.399,312.611,216.549,312.611z M172.213,365.341
			v-23.173h88.672v23.173c0,11.668-9.495,21.163-21.163,21.163h-46.346C181.708,386.504,172.213,377.009,172.213,365.341z
			 M193.376,401.283h46.346h58.11v44.336H135.267v-44.336H193.376z M179.603,460.397h73.893v7.389c0,4.079-3.318,7.389-7.389,7.389
			h-59.115c-4.072,0-7.389-3.31-7.389-7.389V460.397z M135.267,460.397h29.557v7.389c0,12.222,9.946,22.168,22.168,22.168h59.115
			c12.222,0,22.168-9.946,22.168-22.168v-7.389h29.557v44.336H135.267V460.397z M504.733,504.733H312.611V401.283h192.123V504.733z"
			/>
		<path fill="#87b232" d="M489.955,489.955v-73.893H327.389v73.893H489.955z M475.176,475.176h-59.115V430.84h59.115V475.176z
			 M342.168,430.84h59.115v44.336h-59.115V430.84z"/>
		<rect x="209.16" y="416.061" fill="#87b232" width="14.779" height="14.779"/>
		<rect x="238.717" y="416.061" fill="#87b232" width="14.779" height="14.779"/>
		<rect x="179.603" y="416.061" fill="#87b232" width="14.779" height="14.779"/>
		<path fill="#87b232" d="M489.955,150.045H327.389v103.451h162.565V150.045z M342.168,194.381h14.779v14.779h-14.779V194.381z
			 M475.176,238.717H342.168v-14.779h29.557v-44.336h-29.557v-14.779h133.008V238.717z"/>
		<path fill="#87b232" d="M312.611,150.045H150.045v103.451h162.565V150.045z M164.824,238.717v-73.893h133.008v14.779h-29.557
			v44.336h29.557v14.779H164.824z M297.832,194.381v14.779h-14.779v-14.779H297.832z"/>
	</g>
</g>
</svg>
