<svg xmlns="http://www.w3.org/2000/svg" xmlns:xlink="http://www.w3.org/1999/xlink" version="1.1" x="0px" y="0px" viewBox="0 0 100 125" enable-background="new 0 0 100 100" xml:space="preserve"><path d="M52.9,94.4l8.1-8.1c0.4-0.4,0.9-0.6,1.4-0.5l11.3,1.8c0.2,0,0.4,0.1,0.7,0.1c2,0,3.7-1.5,4.1-3.5l1.8-11.3  c0.1-0.5,0.4-1,0.9-1.2l10.2-5.2c1-0.5,1.7-1.3,2-2.4c0.3-1,0.3-2.2-0.2-3.1l-5.2-10.2c-0.2-0.5-0.2-1,0-1.5L93.1,39  c0.5-1,0.6-2.1,0.2-3.1c-0.3-1-1.1-1.9-2-2.4l-10.2-5.2c-0.5-0.2-0.8-0.7-0.9-1.2l-1.8-11.3c-0.3-2-2-3.5-4.1-3.5  c-0.2,0-0.4,0-0.7,0.1l-11.3,1.8c-0.5,0.1-1.1-0.1-1.4-0.5l-8.1-8.1c-0.8-0.8-1.8-1.2-2.9-1.2c-1.1,0-2.1,0.4-2.9,1.2L39,13.7  c-0.4,0.4-0.9,0.5-1.4,0.5l-11.3-1.8c-0.2,0-0.4-0.1-0.7-0.1c-2,0-3.7,1.5-4.1,3.5l-1.8,11.3c-0.1,0.5-0.4,1-0.9,1.2L8.7,33.5  c-1,0.5-1.7,1.3-2,2.4c-0.3,1-0.3,2.2,0.2,3.1l5.2,10.2c0.2,0.5,0.2,1,0,1.5L6.9,61c-0.5,1-0.6,2.1-0.2,3.1c0.3,1,1.1,1.9,2,2.4  l10.2,5.2c0.5,0.2,0.8,0.7,0.9,1.2l1.8,11.3c0.3,2,2,3.5,4.1,3.5c0.2,0,0.4,0,0.7-0.1l11.3-1.8c0.5-0.1,1.1,0.1,1.4,0.5l8.1,8.1  c0.8,0.8,1.8,1.2,2.9,1.2C51.1,95.6,52.1,95.2,52.9,94.4z M48.8,92.7l-8.1-8.1c-0.8-0.8-1.8-1.2-2.9-1.2c-0.2,0-0.4,0-0.6,0.1  l-11.3,1.8c-0.9,0.1-1.8-0.5-1.9-1.4l-1.8-11.3c-0.2-1.3-1-2.4-2.2-3L9.8,64.3c-0.4-0.2-0.7-0.5-0.8-1c-0.1-0.4-0.1-0.9,0.1-1.3  l5.2-10.2c0.6-1.2,0.6-2.6,0-3.7L9.1,37.9c-0.2-0.4-0.2-0.8-0.1-1.3c0.1-0.4,0.4-0.8,0.8-1L20,30.5c1.2-0.6,2-1.7,2.2-3L24,16.2  c0.1-0.9,1-1.5,1.9-1.4l11.3,1.8c1.3,0.2,2.6-0.2,3.6-1.2l8.1-8.1c0.6-0.6,1.7-0.6,2.3,0l8.1,8.1c0.9,0.9,2.3,1.4,3.6,1.2l11.3-1.8  c0.9-0.1,1.8,0.5,1.9,1.4l1.8,11.3c0.2,1.3,1,2.4,2.2,3l10.2,5.2c0.4,0.2,0.7,0.5,0.8,1c0.1,0.4,0.1,0.9-0.1,1.3l-5.2,10.2  c-0.6,1.2-0.6,2.6,0,3.7l5.2,10.2c0.2,0.4,0.2,0.8,0.1,1.3c-0.1,0.4-0.4,0.8-0.8,1L80,69.5c-1.2,0.6-2,1.7-2.2,3L76,83.8  c-0.1,0.9-1,1.5-1.9,1.4l-11.3-1.8c-1.3-0.2-2.6,0.2-3.6,1.2l-8.1,8.1C50.5,93.3,49.5,93.3,48.8,92.7z M68.4,61.1l2.4-15.5  c0-0.1,0-0.1,0-0.2c0-3.4-2.7-6.1-6.1-6.1h-9v-6.4c0-2.8-0.8-4.9-2.5-6.1C50.7,24.9,47.1,26,47,26c-0.5,0.2-0.9,0.6-0.9,1.2v7.4  c0,5.7-6.7,7.7-6.9,7.7c-0.2,0.1-0.4,0.2-0.6,0.4c-0.6-0.6-1.4-0.9-2.2-0.9h-5.2c-1.7,0-3.1,1.4-3.1,3.1v18.3c0,1.7,1.4,3.1,3.1,3.1  h5.2c1,0,1.9-0.5,2.4-1.2c1.1,1.1,2.6,1.8,4.3,1.8h18.1C65.3,67,68,64.9,68.4,61.1z M37,63.2c0,0.4-0.3,0.7-0.7,0.7h-5.2  c-0.4,0-0.7-0.3-0.7-0.7V44.9c0-0.4,0.3-0.7,0.7-0.7h5.2c0.4,0,0.7,0.3,0.7,0.7V63.2z M39.5,60.9v-16c0-0.1,0-0.1,0-0.2  c0.1,0,0.3,0,0.4,0c0.4-0.1,8.7-2.5,8.7-10.1v-6.4c0.9-0.1,2.3-0.2,3.3,0.6c1,0.7,1.5,2.1,1.5,4.1v7.7c0,0.7,0.5,1.2,1.2,1.2h10.2  c2,0,3.6,1.6,3.6,3.5L66,60.8c-0.3,2.5-1.9,3.8-4.8,3.8H43.1C41.1,64.6,39.5,62.9,39.5,60.9z"/><text x="0" y="115" fill="#000000" font-size="5px" font-weight="bold" font-family="'Helvetica Neue', Helvetica, Arial-Unicode, Arial, Sans-serif">Created by Gregor Cresnar</text><text x="0" y="120" fill="#000000" font-size="5px" font-weight="bold" font-family="'Helvetica Neue', Helvetica, Arial-Unicode, Arial, Sans-serif">from the Noun Project</text></svg>