<?xml version="1.0" encoding="utf-8"?>
<!-- Generator: Adobe Illustrator 17.0.0, SVG Export Plug-In . SVG Version: 6.00 Build 0)  -->
<!DOCTYPE svg PUBLIC "-//W3C//DTD SVG 1.1//EN" "http://www.w3.org/Graphics/SVG/1.1/DTD/svg11.dtd">
<svg version="1.1" id="Layer_1" xmlns="http://www.w3.org/2000/svg" xmlns:xlink="http://www.w3.org/1999/xlink" x="0px" y="0px"
	 width="640px" height="640px" viewBox="0 0 640 640" enable-background="new 0 0 640 640" xml:space="preserve">
<g>
	<rect x="14.105" y="14.105" fill="#d2243f" width="611.789" height="611.789"/>
	<rect x="19.499" y="19.499" fill="#FFFFFF" width="601" height="601"/>
</g>
<g>
	<g>
		<path fill="#d2243f" d="M544.017,312.152h-25.563V145.832c0-2.792-2.264-5.053-5.053-5.053h-72.243
			c-2.789,0-5.053,2.26-5.053,5.053v166.319h-76.143v-12.14c0-2.792-2.264-5.053-5.053-5.053h-16.418v-26.095h63.272
			c2.789,0,5.053-2.26,5.053-5.053v-84.376c0-2.792-2.264-5.053-5.053-5.053h-163.53c-2.789,0-5.053,2.26-5.053,5.053v84.379
			c0,2.792,2.264,5.053,5.053,5.053h63.272v26.095H285.09c-2.789,0-5.053,2.26-5.053,5.053v12.14h-76.143V145.832
			c0-2.792-2.264-5.053-5.053-5.053h-72.243c-2.789,0-5.053,2.26-5.053,5.053v166.319H95.983c-2.789,0-5.053,2.26-5.053,5.053
			v112.755c0,2.792,2.264,5.053,5.053,5.053H104v21.073v38.083c0,2.792,2.264,5.053,5.053,5.053h17.546
			c2.789,0,5.053-2.26,5.053-5.053v-33.031h376.697v33.031c0,2.792,2.264,5.053,5.053,5.053h17.546c2.789,0,5.053-2.26,5.053-5.053
			v-38.083v-21.073h8.017c2.789,0,5.053-2.26,5.053-5.053V317.204C549.069,314.412,546.806,312.152,544.017,312.152z
			 M446.211,150.885h62.137v161.267h-62.137V150.885z M231.899,424.906v-50.004h164.817v50.004L231.899,424.906L231.899,424.906z
			 M396.712,364.797H231.896v-42.54h53.191h69.824h41.802V364.797z M243.288,184.488h153.428v74.274H333.44h-26.88h-63.272V184.488z
			 M311.613,268.864h16.775v26.095h-16.775V268.864z M290.142,305.064h16.418h26.88h16.418v7.087h-59.715V305.064z M131.651,150.885
			h62.137v161.267h-62.137V150.885z M101.036,322.257h25.563h72.243h22.949v102.649H109.049h-8.017V322.257H101.036z
			 M121.546,489.115h-7.441v-27.978h7.441V489.115z M525.895,489.115h-7.441v-27.978h7.441V489.115z M525.895,451.032h-12.493
			H126.599h-12.493v-16.02h411.789V451.032z M538.964,424.906h-8.017h-124.13V322.257h34.338h72.243h25.563v102.649H538.964z"/>
		<path fill="#d2243f" d="M208.923,391.704c2.789,0,5.053-2.26,5.053-5.053v-24.643c0-2.792-2.264-5.053-5.053-5.053
			s-5.053,2.26-5.053,5.053v24.643C203.87,389.44,206.134,391.704,208.923,391.704z"/>
		<path fill="#d2243f" d="M416.697,356.955c-2.789,0-5.053,2.26-5.053,5.053v24.643c0,2.792,2.264,5.053,5.053,5.053
			s5.053-2.26,5.053-5.053v-24.643C421.75,359.215,419.486,356.955,416.697,356.955z"/>
		<path fill="#d2243f" d="M333.999,341.272h-28.002c-2.789,0-5.053,2.26-5.053,5.053c0,2.792,2.264,5.053,5.053,5.053h28.002
			c2.789,0,5.053-2.26,5.053-5.053C339.052,343.532,336.788,341.272,333.999,341.272z"/>
		<path fill="#d2243f" d="M333.999,395.597h-28.002c-2.789,0-5.053,2.26-5.053,5.053s2.264,5.053,5.053,5.053h28.002
			c2.789,0,5.053-2.26,5.053-5.053S336.788,395.597,333.999,395.597z"/>
		<path fill="#d2243f" d="M162.722,168.034c-12.77,0-23.158,10.388-23.158,23.161c0,12.77,10.388,23.158,23.158,23.158
			s23.158-10.388,23.158-23.158S175.491,168.034,162.722,168.034z M162.722,204.251c-7.198,0-13.053-5.858-13.053-13.053
			c0-7.198,5.854-13.056,13.053-13.056c7.198,0,13.053,5.858,13.053,13.056C175.774,198.393,169.917,204.251,162.722,204.251z"/>
		<path fill="#d2243f" d="M477.278,168.034c-12.77,0-23.158,10.388-23.158,23.161c0,12.77,10.388,23.158,23.158,23.158
			s23.158-10.388,23.158-23.158S490.048,168.034,477.278,168.034z M477.278,204.251c-7.198,0-13.053-5.858-13.053-13.053
			c0-7.198,5.854-13.056,13.053-13.056c7.198,0,13.053,5.858,13.053,13.056C490.331,198.393,484.477,204.251,477.278,204.251z"/>
		<path fill="#d2243f" d="M477.278,245.043c-12.77,0-23.158,10.388-23.158,23.158s10.388,23.158,23.158,23.158
			s23.158-10.388,23.158-23.158S490.048,245.043,477.278,245.043z M477.278,281.256c-7.198,0-13.053-5.858-13.053-13.053
			s5.854-13.053,13.053-13.053c7.198,0,13.053,5.858,13.053,13.053S484.477,281.256,477.278,281.256z"/>
		<path fill="#d2243f" d="M162.722,245.043c-12.77,0-23.158,10.388-23.158,23.158s10.388,23.158,23.158,23.158
			S185.88,280.97,185.88,268.2S175.491,245.043,162.722,245.043z M162.722,281.256c-7.198,0-13.053-5.858-13.053-13.053
			s5.854-13.053,13.053-13.053c7.198,0,13.053,5.858,13.053,13.053S169.917,281.256,162.722,281.256z"/>
	</g>
</g>
</svg>
