<svg xmlns="http://www.w3.org/2000/svg" xmlns:xlink="http://www.w3.org/1999/xlink" version="1.1" x="0px" y="0px" viewBox="0 0 152 190" enable-background="new 0 0 152 152" xml:space="preserve"><g><path d="M142.505,73.67h-7.589V24.294c0-0.829-0.672-1.5-1.5-1.5h-21.447c-0.828,0-1.5,0.671-1.5,1.5V73.67H87.864v-3.604   c0-0.829-0.672-1.5-1.5-1.5H81.49v-7.747h18.784c0.828,0,1.5-0.671,1.5-1.5V34.27c0-0.829-0.672-1.5-1.5-1.5H51.726   c-0.828,0-1.5,0.671-1.5,1.5v25.05c0,0.829,0.672,1.5,1.5,1.5H70.51v7.747h-4.874c-0.828,0-1.5,0.671-1.5,1.5v3.604H41.531V24.294   c0-0.829-0.672-1.5-1.5-1.5H18.584c-0.828,0-1.5,0.671-1.5,1.5V73.67H9.495c-0.828,0-1.5,0.671-1.5,1.5v33.474   c0,0.829,0.672,1.5,1.5,1.5h2.38v6.256v11.306c0,0.829,0.672,1.5,1.5,1.5h5.209c0.828,0,1.5-0.671,1.5-1.5V117.9h111.832v9.806   c0,0.829,0.672,1.5,1.5,1.5h5.209c0.828,0,1.5-0.671,1.5-1.5V116.4v-6.256h2.38c0.828,0,1.5-0.671,1.5-1.5V75.17   C144.005,74.341,143.333,73.67,142.505,73.67z M113.469,25.794h18.447V73.67h-18.447V25.794z M49.845,107.144V92.299h48.93v14.845   H49.845z M98.774,89.299h-48.93V76.67h15.791h20.729h12.41V89.299z M53.226,35.77h45.549v22.05H79.99h-7.98H53.226V35.77z    M73.51,60.819h4.98v7.747h-4.98V60.819z M67.136,71.566h4.874h7.98h4.874v2.104H67.136V71.566z M20.084,25.794h18.447V73.67   H20.084V25.794z M10.995,76.67h7.589h21.447h6.813v30.474h-33.47h-2.38V76.67z M17.084,126.206h-2.209V117.9h2.209V126.206z    M137.125,126.206h-2.209V117.9h2.209V126.206z M137.125,114.9h-3.709H18.584h-3.709v-4.756h122.25V114.9z M141.005,107.144h-2.38   h-36.851V76.67h10.194h21.447h7.589V107.144z"/><path d="M43.024,97.287c0.828,0,1.5-0.671,1.5-1.5v-7.316c0-0.829-0.672-1.5-1.5-1.5s-1.5,0.671-1.5,1.5v7.316   C41.524,96.615,42.196,97.287,43.024,97.287z"/><path d="M104.707,86.971c-0.828,0-1.5,0.671-1.5,1.5v7.316c0,0.829,0.672,1.5,1.5,1.5s1.5-0.671,1.5-1.5v-7.316   C106.207,87.642,105.535,86.971,104.707,86.971z"/><path d="M80.156,82.315h-8.313c-0.828,0-1.5,0.671-1.5,1.5s0.672,1.5,1.5,1.5h8.313c0.828,0,1.5-0.671,1.5-1.5   S80.984,82.315,80.156,82.315z"/><path d="M80.156,98.443h-8.313c-0.828,0-1.5,0.671-1.5,1.5s0.672,1.5,1.5,1.5h8.313c0.828,0,1.5-0.671,1.5-1.5   S80.984,98.443,80.156,98.443z"/><path d="M29.308,30.885c-3.791,0-6.875,3.084-6.875,6.876c0,3.791,3.084,6.875,6.875,6.875s6.875-3.084,6.875-6.875   C36.183,33.97,33.099,30.885,29.308,30.885z M29.308,41.637c-2.137,0-3.875-1.739-3.875-3.875c0-2.137,1.738-3.876,3.875-3.876   s3.875,1.739,3.875,3.876C33.183,39.898,31.444,41.637,29.308,41.637z"/><path d="M122.692,30.885c-3.791,0-6.875,3.084-6.875,6.876c0,3.791,3.084,6.875,6.875,6.875s6.875-3.084,6.875-6.875   C129.567,33.97,126.483,30.885,122.692,30.885z M122.692,41.637c-2.137,0-3.875-1.739-3.875-3.875c0-2.137,1.738-3.876,3.875-3.876   s3.875,1.739,3.875,3.876C126.567,39.898,124.829,41.637,122.692,41.637z"/><path d="M122.692,53.747c-3.791,0-6.875,3.084-6.875,6.875s3.084,6.875,6.875,6.875s6.875-3.084,6.875-6.875   S126.483,53.747,122.692,53.747z M122.692,64.498c-2.137,0-3.875-1.739-3.875-3.875s1.738-3.875,3.875-3.875   s3.875,1.739,3.875,3.875S124.829,64.498,122.692,64.498z"/><path d="M29.308,53.747c-3.791,0-6.875,3.084-6.875,6.875s3.084,6.875,6.875,6.875s6.875-3.084,6.875-6.875   S33.099,53.747,29.308,53.747z M29.308,64.498c-2.137,0-3.875-1.739-3.875-3.875s1.738-3.875,3.875-3.875s3.875,1.739,3.875,3.875   S31.444,64.498,29.308,64.498z"/></g></svg>
