<svg xmlns:dc="http://purl.org/dc/elements/1.1/" xmlns:cc="http://creativecommons.org/ns#" xmlns:rdf="http://www.w3.org/1999/02/22-rdf-syntax-ns#" xmlns:svg="http://www.w3.org/2000/svg" xmlns="http://www.w3.org/2000/svg" xmlns:sodipodi="http://sodipodi.sourceforge.net/DTD/sodipodi-0.dtd" xmlns:inkscape="http://www.inkscape.org/namespaces/inkscape" version="1.1" x="0px" y="0px" viewBox="0 0 100 125"><g transform="translate(0,-952.36218)"><path style="text-indent:0;text-transform:none;direction:ltr;block-progression:tb;baseline-shift:baseline;color:#000000;enable-background:accumulate;" d="m 49.781201,957.35931 a 2.0002003,2.0002003 0 0 0 -0.9062,0.34375 l -4.9062,3.3125 -5.8126,-1.1875 a 2.0002003,2.0002003 0 0 0 -2.0937,0.84375 l -3.25,4.96875 -5.8125,1.125 a 2.0002003,2.0002003 0 0 0 -1.5938,1.59375 l -1.125,5.81248 -4.9687,3.25 a 2.0002003,2.0002003 0 0 0 -0.8437,2.0938 l 1.1874,5.8125 -3.3124,4.9062 a 2.0002003,2.0002003 0 0 0 0,2.25 l 3.3124,4.875 -1.1874,5.81251 a 2.0002003,2.0002003 0 0 0 0.8437,2.0938 l 2.8125,1.8437 -16.8124998,26.1563 a 2.0002,2.0002 0 0 0 2.0937,3.0312 l 13.1562998,-2.625 3.5,12.2188 a 2.0002,2.0002 0 0 0 3.6563,0.5 l 14.625,-24.375 1.625,-0.3438 4.9062,3.3125 a 2.0002003,2.0002003 0 0 0 1.125,0.375 2.0002003,2.0002003 0 0 0 1.125,-0.375 l 4.9062,-3.3125 1.625,0.3438 14.625,24.375 a 2.0002,2.0002 0 0 0 3.6563,-0.5 l 3.5,-12.2188 13.1563,2.625 a 2.0002,2.0002 0 0 0 2.093698,-3.0312 l -16.812498,-26.1875 2.7812,-1.8125 a 2.0002003,2.0002003 0 0 0 0.8438,-2.0938 l -1.1875,-5.81251 3.3125,-4.875 a 2.0002003,2.0002003 0 0 0 0,-2.25 l -3.3125,-4.9062 1.1875,-5.8125 a 2.0002003,2.0002003 0 0 0 -0.8438,-2.0938 l -4.9687,-3.25 -1.125,-5.81248 a 2.0002003,2.0002003 0 0 0 -1.5937,-1.59375 l -5.8126,-1.125 -3.25,-4.96875 a 2.0002003,2.0002003 0 0 0 -2.0937,-0.84375 l -5.7813,1.1875 -4.9062,-3.3125 a 2.0002003,2.0002003 0 0 0 -1.3438,-0.34375 z m 0.2188,4.40625 4.4688,3.0625 a 2.0002003,2.0002003 0 0 0 1.5624,0.3125 l 5.25,-1.125 2.9688,4.53125 a 2.0002003,2.0002003 0 0 0 1.3125,0.875 l 5.3437,1 1,5.34378 a 2.0002003,2.0002003 0 0 0 0.875,1.3125 l 4.5313,2.9687 -1.125,5.2813 a 2.0002003,2.0002003 0 0 0 0.3125,1.5625 l 3.0625,4.4687 -3.0625,4.4375 a 2.0002003,2.0002003 0 0 0 -0.3125,1.5625 l 1.125,5.28131 -4.5313,2.9687 a 2.0002003,2.0002003 0 0 0 -0.875,1.3125 l -1,5.3438 -5.3437,1 a 2.0002003,2.0002003 0 0 0 -1.3125,0.875 l -2.9688,4.5312 -5.25,-1.125 a 2.0002003,2.0002003 0 0 0 -1.5624,0.3125 l -4.4688,3.0625 -4.4688,-3.0625 a 2.0002003,2.0002003 0 0 0 -1.5624,-0.3125 l -5.2813,1.125 -2.9687,-4.5312 a 2.0002003,2.0002003 0 0 0 -1.3126,-0.875 l -5.3437,-1 -1,-5.3438 a 2.0002003,2.0002003 0 0 0 -0.875,-1.3125 l -4.5313,-2.9687 1.125,-5.28131 a 2.0002003,2.0002003 0 0 0 -0.3124,-1.5625 l -3.0626,-4.4375 3.0626,-4.4687 a 2.0002003,2.0002003 0 0 0 0.3124,-1.5625 l -1.125,-5.2813 4.5313,-2.9687 a 2.0002003,2.0002003 0 0 0 0.875,-1.3125 l 1,-5.34378 5.3437,-1 a 2.0002003,2.0002003 0 0 0 1.3126,-0.875 l 2.9687,-4.53125 5.2813,1.125 a 2.0002003,2.0002003 0 0 0 1.5624,-0.3125 l 4.4688,-3.0625 z m 0,5.59375 c -13.2311,0 -24,10.76888 -24,23.99998 0,13.23121 10.7689,24.00001 24,24.00001 13.2311,0 24,-10.7688 24,-24.00001 0,-13.2311 -10.7689,-23.99998 -24,-23.99998 z m 0,4 c 11.0695,0 20,8.93058 20,19.99998 0,11.06941 -8.9305,20.00001 -20,20.00001 -11.0695,0 -20,-8.9306 -20,-20.00001 0,-11.0694 8.9305,-19.99998 20,-19.99998 z m 11,8.84378 -2.125,2.125 -12,12 -5.9062,-5.1563 -2.25,-1.9687 -3.9376,4.5312 2.25,1.9688 8,7.00001 2.0938,1.8437 2,-2 14,-14.00001 2.125,-2.0937 -4.25,-4.25 z m 14.3125,30.31251 13.4687,20.9375 -10.375,-2.0625 a 2.0002,2.0002 0 0 0 -2.3437,1.4062 l -2.7187,9.5625 -10.5313,-17.5312 a 2.0002003,2.0002003 0 0 0 1.0937,-0.8125 l 3.25,-4.9688 5.8126,-1.125 a 2.0002003,2.0002003 0 0 0 1.5937,-1.5937 l 0.75,-3.8125 z m -50.625,0.031 0.7187,3.7812 a 2.0002003,2.0002003 0 0 0 1.5938,1.5938 l 5.8125,1.125 3.25,4.9687 a 2.0002003,2.0002003 0 0 0 1.0937,0.8125 l -10.5,17.5313 -2.7187,-9.5625 a 2.0002,2.0002 0 0 0 -2.3437,-1.4063 l -10.375,2.0625 13.4687,-20.9062 z" fill="#000000" fill-opacity="1" stroke="none" marker="none" visibility="visible" display="inline" overflow="visible"/></g></svg>
