<?xml version="1.0" encoding="utf-8"?>
<!-- Generator: Adobe Illustrator 17.0.0, SVG Export Plug-In . SVG Version: 6.00 Build 0)  -->
<!DOCTYPE svg PUBLIC "-//W3C//DTD SVG 1.1//EN" "http://www.w3.org/Graphics/SVG/1.1/DTD/svg11.dtd">
<svg version="1.1" id="Layer_1" xmlns="http://www.w3.org/2000/svg" xmlns:xlink="http://www.w3.org/1999/xlink" x="0px" y="0px"
	 width="640px" height="640px" viewBox="0 0 640 640" enable-background="new 0 0 640 640" xml:space="preserve">
<g>
	<rect fill="#d2243f" x="13.106" y="14.106" width="611.789" height="611.789"/>
	<rect x="18.5" y="19.5" fill="#FFFFFF" width="601" height="601"/>
</g>
<g>
	<g>
		<g>
			<g>
				<g>
					<g>
						<path fill="#d2243f" d="M560,534.844h-80.24c-4.416,0-8-3.584-8-8V379.252c0-4.416,3.584-8,8-8H560c4.416,0,8,3.584,8,8
							v147.592C568,531.26,564.416,534.844,560,534.844z M487.76,518.844H552V387.252h-64.24V518.844z"/>
					</g>
					<path fill="#d2243f" d="M519.88,511.46c-4.416,0-8-3.584-8-8v-28.696c0-4.416,3.584-8,8-8c4.416,0,8,3.584,8,8v28.696
						C527.88,507.876,524.304,511.46,519.88,511.46z"/>
				</g>
				<path fill="#d2243f" d="M260.24,543.988c-25.184,0-49.528-5.832-71.44-17.08L83.888,473.012
					C76.512,469.22,71.96,461.94,72,454.02c0.04-7.928,4.68-15.168,12.112-18.88c19.168-9.584,41.496-12.568,62.84-8.4
					l94.248,26.456c-0.216-1.272-0.36-2.56-0.408-3.864c-0.36-8.912,3.336-17.608,10.152-23.856l43.904-38.128
					c22.616-19.648,54.464-28.632,85.24-24.08c0.344,0.048,0.688,0.128,1.024,0.224l100.848,28.872c3.432,0.984,5.8,4.12,5.8,7.688
					v104.792c0,3.968-2.904,7.336-6.832,7.912L274.296,543.38C269.592,543.788,264.896,543.988,260.24,543.988z M128.024,440.844
					c-12.624,0-25.36,2.904-36.76,8.608c-2.064,1.032-3.256,2.728-3.264,4.656c-0.008,1.92,1.16,3.624,3.2,4.672l104.912,53.888
					c23.288,11.96,49.68,17.112,76.344,14.832l199.312-29.552v-91.864L377.24,379.02c-26.032-3.72-52.872,3.896-71.888,20.4
					L261.6,437.412c-3.224,2.96-4.992,7.008-4.824,11.264c0.176,4.328,2.328,8.304,6.048,11.2l0,0
					c4.816,3.736,11.28,4.832,17.088,3.368c2.88-0.728,5.6-2.096,7.848-4.096l56.384-50.024c3.304-2.944,8.352-2.624,11.296,0.672
					c1.352,1.52,2.016,3.416,2.016,5.304c0,2.208-0.912,4.408-2.688,5.992l-56.384,50.024
					c-12.136,10.768-30.776,11.672-44.024,2.376l-111.104-31.2C138.264,441.324,133.16,440.844,128.024,440.844z"/>
			</g>
			<g>
				<path fill="#d2243f" d="M398.512,346.636H104.344c-4.416,0-8-3.584-8-8V104.012c0-4.416,3.584-8,8-8h294.168
					c4.416,0,8,3.584,8,8v234.624C406.512,343.052,402.928,346.636,398.512,346.636z M112.344,330.636h278.168V112.012H112.344
					V330.636z"/>
				<path fill="#d2243f" d="M286.984,204.796c-2.032,0-4.032-0.776-5.56-2.248l-29.992-28.96l-30,28.96
					c-2.312,2.232-5.736,2.864-8.68,1.608c-2.96-1.256-4.872-4.152-4.872-7.36v-92.784c0-4.416,3.584-8,8-8c4.416,0,8,3.584,8,8
					v73.936l22-21.24c3.104-2.992,8.016-2.992,11.12,0l21.992,21.232v-73.928c0-4.416,3.584-8,8-8c4.416,0,8,3.584,8,8v92.784
					c0,3.208-1.92,6.112-4.872,7.36C289.096,204.588,288.032,204.796,286.984,204.796z"/>
				<g>
					<g>
						<g>
							<path fill="#d2243f" d="M158.128,315.148c-4.416,0-8-3.584-8-8v-68.656c0-4.416,3.584-8,8-8s8,3.584,8,8v68.664
								C166.128,311.564,162.544,315.148,158.128,315.148z"/>
						</g>
						<path fill="#d2243f" d="M178.576,272.012c-2.344,0-4.664-1.024-6.248-3l-14.48-18.08l-16.12,18.36
							c-2.912,3.328-7.968,3.64-11.288,0.736c-3.32-2.912-3.648-7.968-0.736-11.288l22.408-25.528c1.56-1.776,3.968-2.88,6.192-2.72
							c2.368,0.048,4.584,1.152,6.064,3l20.448,25.528c2.76,3.448,2.2,8.48-1.248,11.24
							C182.096,271.444,180.328,272.012,178.576,272.012z"/>
					</g>
				</g>
				<path fill="#d2243f" d="M360.472,289.396h-46.664c-4.416,0-8-3.584-8-8s3.584-8,8-8h46.664c4.416,0,8,3.584,8,8
					S364.888,289.396,360.472,289.396z"/>
			</g>
		</g>
	</g>
</g>
</svg>
