<svg xmlns="http://www.w3.org/2000/svg" xmlns:xlink="http://www.w3.org/1999/xlink" version="1.1" x="0px" y="0px" viewBox="0 0 64 80" style="enable-background:new 0 0 64 64;" xml:space="preserve"><g><g><g><g><g><path d="M62,58.854H51.97c-0.552,0-1-0.448-1-1V39.405c0-0.552,0.448-1,1-1H62c0.552,0,1,0.448,1,1v18.449       C63,58.406,62.552,58.854,62,58.854z M52.97,56.854H61V40.405h-8.03V56.854z"/></g><path d="M56.985,55.931c-0.552,0-1-0.448-1-1v-3.587c0-0.552,0.448-1,1-1s1,0.448,1,1v3.587      C57.985,55.483,57.538,55.931,56.985,55.931z"/></g><path d="M24.53,59.997c-3.148,0-6.191-0.729-8.93-2.135L2.486,51.125C1.564,50.651,0.995,49.741,1,48.751     c0.005-0.991,0.585-1.896,1.514-2.36c2.396-1.198,5.187-1.571,7.855-1.05l11.781,3.307c-0.027-0.159-0.045-0.32-0.051-0.483     c-0.045-1.114,0.417-2.201,1.269-2.982l5.488-4.766c2.827-2.456,6.808-3.579,10.655-3.01c0.043,0.006,0.086,0.016,0.128,0.028     l12.606,3.609c0.429,0.123,0.725,0.515,0.725,0.961v13.099c0,0.496-0.363,0.917-0.854,0.989l-25.829,3.828     C25.699,59.972,25.112,59.997,24.53,59.997z M8.003,47.104c-1.578,0-3.17,0.363-4.595,1.076C3.15,48.309,3.001,48.521,3,48.762     c-0.001,0.24,0.145,0.453,0.4,0.584l13.114,6.736c2.911,1.495,6.21,2.139,9.543,1.854l24.914-3.694V42.759l-11.816-3.383     c-3.254-0.465-6.609,0.487-8.986,2.55L24.7,46.675c-0.403,0.37-0.624,0.876-0.603,1.408c0.022,0.541,0.291,1.038,0.756,1.4     c0,0,0,0,0,0c0.602,0.467,1.41,0.604,2.136,0.421c0.36-0.091,0.7-0.262,0.981-0.512l7.048-6.253     c0.413-0.368,1.044-0.328,1.412,0.084c0.169,0.19,0.252,0.427,0.252,0.663c0,0.276-0.114,0.551-0.336,0.749l-7.048,6.253     c-1.517,1.346-3.847,1.459-5.503,0.297L9.907,47.285C9.283,47.164,8.645,47.104,8.003,47.104z"/></g><g><path d="M41.814,35.328H5.043c-0.552,0-1-0.448-1-1V5c0-0.552,0.448-1,1-1h36.771c0.552,0,1,0.448,1,1v29.328     C42.814,34.88,42.366,35.328,41.814,35.328z M6.043,33.328h34.771V6H6.043V33.328z"/><path d="M27.873,17.598c-0.254,0-0.504-0.097-0.695-0.281l-3.749-3.62l-3.75,3.62c-0.289,0.279-0.717,0.358-1.085,0.201     c-0.37-0.157-0.609-0.519-0.609-0.92V5c0-0.552,0.448-1,1-1s1,0.448,1,1v9.242l2.75-2.655c0.388-0.374,1.002-0.374,1.39,0     l2.749,2.654V5c0-0.552,0.448-1,1-1s1,0.448,1,1v11.598c0,0.401-0.24,0.764-0.609,0.92     C28.137,17.572,28.004,17.598,27.873,17.598z"/><g><g><g><path d="M11.766,31.392c-0.552,0-1-0.448-1-1V21.81c0-0.552,0.448-1,1-1s1,0.448,1,1v8.583        C12.766,30.944,12.318,31.392,11.766,31.392z"/></g><path d="M14.322,26c-0.293,0-0.583-0.128-0.781-0.375l-1.81-2.26L9.716,25.66c-0.364,0.416-0.996,0.455-1.411,0.092       c-0.415-0.364-0.456-0.996-0.092-1.411l2.801-3.191c0.195-0.222,0.496-0.36,0.774-0.34c0.296,0.006,0.573,0.144,0.758,0.375       l2.556,3.191c0.345,0.431,0.275,1.06-0.156,1.405C14.762,25.929,14.541,26,14.322,26z"/></g></g><path d="M37.059,28.173h-5.833c-0.552,0-1-0.448-1-1s0.448-1,1-1h5.833c0.552,0,1,0.448,1,1S37.611,28.173,37.059,28.173z"/></g></g></g></svg>
