<svg fill="#fff" xmlns="http://www.w3.org/2000/svg" xmlns:xlink="http://www.w3.org/1999/xlink" version="1.1" x="0px" y="0px" viewBox="0 0 64 80" style="enable-background:new 0 0 64 64;" xml:space="preserve"><g><g><path d="M32,63C14.907,63,1,49.093,1,32S14.907,1,32,1s31,13.907,31,31S49.093,63,32,63z M32,3    C16.009,3,3,16.009,3,32s13.009,29,29,29s29-13.009,29-29S47.991,3,32,3z"/><g><g><g><g><path d="M52.556,50.715h-6.873c-0.552,0-1-0.448-1-1V37.074c0-0.552,0.448-1,1-1h6.873c0.552,0,1,0.448,1,1        v12.641C53.556,50.268,53.108,50.715,52.556,50.715z M46.684,48.715h4.873V38.074h-4.873V48.715z"/></g><path d="M49.12,47.712c-0.552,0-1-0.448-1-1v-2.458c0-0.552,0.448-1,1-1s1,0.448,1,1v2.458       C50.12,47.265,49.672,47.712,49.12,47.712z"/></g><path d="M26.885,51.497c-2.216,0-4.347-0.511-6.266-1.497l-8.985-4.616c-0.738-0.379-1.193-1.11-1.189-1.908      c0.004-0.799,0.468-1.526,1.211-1.897c1.703-0.852,3.687-1.119,5.584-0.747l7.66,2.149c-0.002-0.818,0.349-1.608,0.975-2.181      l3.766-3.271c2.006-1.742,4.833-2.542,7.553-2.136c0.043,0.006,0.086,0.016,0.128,0.028l8.638,2.473      c0.429,0.123,0.725,0.515,0.725,0.961v8.975c0,0.496-0.363,0.917-0.854,0.989l-17.698,2.623      C27.714,51.479,27.298,51.497,26.885,51.497z M15.562,42.662c-1.028,0-2.075,0.238-3.011,0.706      c-0.04,0.02-0.106,0.062-0.106,0.119c0,0.057,0.064,0.099,0.104,0.118l8.985,4.616c1.941,0.997,4.138,1.426,6.368,1.236      l16.783-2.489V39.61l-7.848-2.247c-2.136-0.295-4.33,0.327-5.885,1.677l-3.747,3.253c-0.201,0.185-0.316,0.444-0.305,0.714      c0.011,0.276,0.152,0.533,0.397,0.724l0,0c0.472,0.368,1.173,0.37,1.646,0.022c0.001,0.001,0.002-0.001,0.004-0.003      c0.001-0.001,0.002,0,0.005-0.003l0,0c0.001,0,0.003,0,0.004-0.003c0.001,0,0.002-0.001,0.003-0.002      c0.002-0.002,0.004-0.003,0.007-0.005c0.001-0.001,0.002-0.002,0.003-0.002c0,0,0,0,0,0s0,0,0,0      c0.006-0.004,0.012-0.009,0.017-0.014l0.001,0c0.005-0.004,0.009-0.008,0.014-0.011c0.001-0.001,0.002-0.001,0.002-0.002      c0.004-0.003,0.009-0.007,0.014-0.011c0,0,0,0,0.001-0.001c0.001-0.001,0.003-0.002,0.005-0.004c0,0,0.001-0.001,0.001-0.001      c0.001-0.001,0.003-0.003,0.005-0.004l4.83-4.285c0.413-0.368,1.044-0.329,1.412,0.084c0.169,0.19,0.252,0.427,0.252,0.663      c0,0.276-0.114,0.551-0.336,0.749l-4.83,4.285c-1.132,1.005-2.865,1.103-4.115,0.258l-9.465-2.66      C16.38,42.7,15.973,42.662,15.562,42.662z"/></g><g><path d="M38.725,33.595H13.529c-0.552,0-1-0.448-1-1V13.5c0-0.552,0.448-1,1-1h25.196c0.552,0,1,0.448,1,1v19.095      C39.725,33.147,39.277,33.595,38.725,33.595z M14.529,31.595h23.196V14.5H14.529V31.595z"/><path d="M23.082,22.446c-0.132,0-0.265-0.026-0.391-0.08c-0.37-0.157-0.609-0.519-0.609-0.92V13.5      c0-0.552,0.448-1,1-1s1,0.448,1,1v5.591l1.351-1.304c0.388-0.374,1.002-0.374,1.39,0l1.35,1.304V13.5c0-0.552,0.448-1,1-1      s1,0.448,1,1v7.947c0,0.401-0.24,0.764-0.609,0.92c-0.37,0.157-0.796,0.077-1.085-0.201l-2.35-2.27l-2.351,2.27      C23.586,22.349,23.335,22.446,23.082,22.446z"/><g><g><g><path d="M18.135,30.898c-0.552,0-1-0.448-1-1v-5.88c0-0.552,0.448-1,1-1s1,0.448,1,1v5.88         C19.135,30.45,18.688,30.898,18.135,30.898z"/></g><path d="M19.887,27.204c-0.293,0-0.583-0.128-0.781-0.375L18.1,25.573l-1.133,1.291        c-0.365,0.415-0.996,0.456-1.411,0.092c-0.415-0.364-0.456-0.996-0.092-1.411l1.919-2.187c0.195-0.222,0.477-0.346,0.774-0.34        c0.296,0.006,0.573,0.144,0.758,0.375l1.751,2.187c0.346,0.431,0.276,1.06-0.155,1.405        C20.328,27.132,20.106,27.204,19.887,27.204z"/></g></g><path d="M35.467,29.693H31.47c-0.552,0-1-0.448-1-1s0.448-1,1-1h3.997c0.552,0,1,0.448,1,1      S36.019,29.693,35.467,29.693z"/></g></g></g></g></svg>
