<?xml version="1.0" encoding="utf-8"?>
<!-- Generator: Adobe Illustrator 17.0.0, SVG Export Plug-In . SVG Version: 6.00 Build 0)  -->
<!DOCTYPE svg PUBLIC "-//W3C//DTD SVG 1.1//EN" "http://www.w3.org/Graphics/SVG/1.1/DTD/svg11.dtd">
<svg version="1.1" id="Layer_1" xmlns="http://www.w3.org/2000/svg" xmlns:xlink="http://www.w3.org/1999/xlink" x="0px" y="0px"
	 width="640px" height="640px" viewBox="0 0 640 640" enable-background="new 0 0 640 640" xml:space="preserve">
<g>
	<rect fill="#87b232" x="13.106" y="14.106" width="611.789" height="611.789"/>
	<rect x="18.5" y="19.5" fill="#FFFFFF" width="601" height="601"/>
</g>
<g>
	<path fill="#87b232" d="M334.7,547.328l41.472-41.472c2.048-2.048,4.608-3.072,7.168-2.56l57.856,9.216
		c1.024,0,2.048,0.512,3.584,0.512c10.24,0,18.944-7.68,20.992-17.92l9.216-57.856c0.512-2.56,2.048-5.12,4.608-6.144l52.224-26.624
		c5.12-2.56,8.704-6.656,10.24-12.288c1.536-5.12,1.536-11.264-1.024-15.872l-26.624-52.224c-1.024-2.56-1.024-5.12,0-7.68
		l26.112-52.736c2.56-5.12,3.072-10.752,1.024-15.872c-1.536-5.12-5.632-9.728-10.24-12.288l-52.224-26.624
		c-2.56-1.024-4.096-3.584-4.608-6.144l-9.216-57.856c-1.536-10.24-10.24-17.92-20.992-17.92c-1.024,0-2.048,0-3.584,0.512
		l-57.856,9.216c-2.56,0.512-5.632-0.512-7.168-2.56l-41.472-41.472c-4.096-4.096-9.216-6.144-14.848-6.144
		c-5.632,0-10.752,2.048-14.848,6.144l-40.96,41.472c-2.048,2.048-4.608,2.56-7.168,2.56l-57.856-9.216
		c-1.024,0-2.048-0.512-3.584-0.512c-10.24,0-18.944,7.68-20.992,17.92l-9.216,57.856c-0.512,2.56-2.048,5.12-4.608,6.144
		l-51.712,26.624c-5.12,2.56-8.704,6.656-10.24,12.288c-1.536,5.12-1.536,11.264,1.024,15.872l26.624,52.224
		c1.024,2.56,1.024,5.12,0,7.68L99.18,376.32c-2.56,5.12-3.072,10.752-1.024,15.872c1.536,5.12,5.632,9.728,10.24,12.288
		l52.224,26.624c2.56,1.024,4.096,3.584,4.608,6.144l9.216,57.856c1.536,10.24,10.24,17.92,20.992,17.92
		c1.024,0,2.048,0,3.584-0.512l57.856-9.216c2.56-0.512,5.632,0.512,7.168,2.56l41.472,41.472c4.096,4.096,9.216,6.144,14.848,6.144
		C325.484,553.472,330.604,551.424,334.7,547.328z M313.708,538.624l-41.472-41.472c-4.096-4.096-9.216-6.144-14.848-6.144
		c-1.024,0-2.048,0-3.072,0.512l-57.856,9.216c-4.608,0.512-9.216-2.56-9.728-7.168l-9.216-57.856
		c-1.024-6.656-5.12-12.288-11.264-15.36l-52.224-27.136c-2.048-1.024-3.584-2.56-4.096-5.12c-0.512-2.048-0.512-4.608,0.512-6.656
		l26.624-52.224c3.072-6.144,3.072-13.312,0-18.944l-26.624-52.224c-1.024-2.048-1.024-4.096-0.512-6.656
		c0.512-2.048,2.048-4.096,4.096-5.12l52.224-26.112c6.144-3.072,10.24-8.704,11.264-15.36l9.216-57.856
		c0.512-4.608,5.12-7.68,9.728-7.168l57.856,9.216c6.656,1.024,13.312-1.024,18.432-6.144l41.472-41.472
		c3.072-3.072,8.704-3.072,11.776,0l41.472,41.472c4.608,4.608,11.776,7.168,18.432,6.144l57.856-9.216
		c4.608-0.512,9.216,2.56,9.728,7.168L462.7,204.8c1.024,6.656,5.12,12.288,11.264,15.36l52.224,26.624
		c2.048,1.024,3.584,2.56,4.096,5.12c0.512,2.048,0.512,4.608-0.512,6.656l-26.624,52.224c-3.072,6.144-3.072,13.312,0,18.944
		l26.624,52.224c1.024,2.048,1.024,4.096,0.512,6.656c-0.512,2.048-2.048,4.096-4.096,5.12l-52.736,26.112
		c-6.144,3.072-10.24,8.704-11.264,15.36l-9.216,57.856c-0.512,4.608-5.12,7.68-9.728,7.168l-57.856-9.216
		c-6.656-1.024-13.312,1.024-18.432,6.144l-41.472,41.472C322.412,541.696,317.292,541.696,313.708,538.624z M414.06,376.832
		l12.288-79.36c0-0.512,0-0.512,0-1.024c0-17.408-13.824-31.232-31.232-31.232h-46.08v-32.768c0-14.336-4.096-25.088-12.8-31.232
		c-12.8-9.728-31.232-4.096-31.744-4.096c-2.56,1.024-4.608,3.072-4.608,6.144v37.888c0,29.184-34.304,39.424-35.328,39.424
		c-1.024,0.512-2.048,1.024-3.072,2.048c-3.072-3.072-7.168-4.608-11.264-4.608h-26.624c-8.704,0-15.872,7.168-15.872,15.872v93.696
		c0,8.704,7.168,15.872,15.872,15.872h26.624c5.12,0,9.728-2.56,12.288-6.144c5.632,5.632,13.312,9.216,22.016,9.216h92.672
		C398.188,407.04,412.012,396.288,414.06,376.832z M253.292,387.584c0,2.048-1.536,3.584-3.584,3.584h-26.624
		c-2.048,0-3.584-1.536-3.584-3.584v-93.696c0-2.048,1.536-3.584,3.584-3.584h26.624c2.048,0,3.584,1.536,3.584,3.584V387.584z
		 M266.092,375.808v-81.92c0-0.512,0-0.512,0-1.024c0.512,0,1.536,0,2.048,0c2.048-0.512,44.544-12.8,44.544-51.712v-32.768
		c4.608-0.512,11.776-1.024,16.896,3.072c5.12,3.584,7.68,10.752,7.68,20.992v39.424c0,3.584,2.56,6.144,6.144,6.144h52.224
		c10.24,0,18.432,8.192,18.432,17.92l-12.288,79.36c-1.536,12.8-9.728,19.456-24.576,19.456h-92.672
		C274.284,394.752,266.092,386.048,266.092,375.808z"/>
</g>
</svg>
